<?xml version="1.0" encoding="UTF-8" standalone="no"?>
<!DOCTYPE svg PUBLIC "-//W3C//DTD SVG 1.1//EN"
 "http://www.w3.org/Graphics/SVG/1.1/DTD/svg11.dtd">
<!-- Generated by graphviz version 2.44.1 (20200629.0846)
 -->
<!-- Title: dependencies Pages: 1 -->
<svg width="1834pt" height="360pt"
 viewBox="0.00 0.00 1834.00 360.00" xmlns="http://www.w3.org/2000/svg" xmlns:xlink="http://www.w3.org/1999/xlink">
<g id="graph0" class="graph" transform="scale(1 1) rotate(0) translate(4 356)">
<title>dependencies</title>
<polygon fill="white" stroke="transparent" points="-4,4 -4,-356 1830,-356 1830,4 -4,4"/>
<text text-anchor="start" x="892.01" y="-42.4" font-family="sans-serif" font-weight="bold" font-size="14.00">Legend</text>
<polygon fill="#ffffb3" stroke="transparent" points="679,-10 679,-30 699,-30 699,-10 679,-10"/>
<text text-anchor="start" x="702.63" y="-15.4" font-family="sans-serif" font-size="14.00"> &#160;Declarations</text>
<polygon fill="#8dd3c7" stroke="transparent" points="792,-10 792,-30 812,-30 812,-10 792,-10"/>
<text text-anchor="start" x="815.73" y="-15.4" font-family="sans-serif" font-size="14.00"> &#160;Module</text>
<polygon fill="#80b1d3" stroke="transparent" points="878,-10 878,-30 898,-30 898,-10 878,-10"/>
<text text-anchor="start" x="901.78" y="-15.4" font-family="sans-serif" font-size="14.00"> &#160;Bootstrap</text>
<polygon fill="#fdb462" stroke="transparent" points="975,-10 975,-30 995,-30 995,-10 975,-10"/>
<text text-anchor="start" x="998.67" y="-15.4" font-family="sans-serif" font-size="14.00"> &#160;Providers</text>
<polygon fill="#fb8072" stroke="transparent" points="1071,-10 1071,-30 1091,-30 1091,-10 1071,-10"/>
<text text-anchor="start" x="1094.73" y="-15.4" font-family="sans-serif" font-size="14.00"> &#160;Exports</text>
<g id="clust1" class="cluster">
<title>cluster_AppModule</title>
<polygon fill="none" stroke="black" stroke-dasharray="1,5" points="610,-146 610,-344 1818,-344 1818,-146 610,-146"/>
</g>
<g id="clust2" class="cluster">
<title>cluster_AppModule_declarations</title>
<polygon fill="none" stroke="black" points="892,-154 892,-206 1810,-206 1810,-154 892,-154"/>
</g>
<g id="clust10" class="cluster">
<title>cluster_AppModule_imports</title>
<polygon fill="none" stroke="black" points="618,-154 618,-206 884,-206 884,-154 618,-154"/>
</g>
<g id="clust12" class="cluster">
<title>cluster_AppModule_bootstrap</title>
<polygon fill="none" stroke="black" points="1154,-284 1154,-336 1278,-336 1278,-284 1154,-284"/>
</g>
<g id="clust20" class="cluster">
<title>cluster_ProductModule</title>
<polygon fill="none" stroke="black" stroke-dasharray="1,5" points="8,-70 8,-138 1350,-138 1350,-70 8,-70"/>
</g>
<g id="clust21" class="cluster">
<title>cluster_ProductModule_declarations</title>
<polygon fill="none" stroke="black" points="188,-78 188,-130 1342,-130 1342,-78 188,-78"/>
</g>
<g id="clust29" class="cluster">
<title>cluster_ProductModule_imports</title>
<polygon fill="none" stroke="black" points="16,-78 16,-130 180,-130 180,-78 16,-78"/>
</g>
<!-- AppComponent -->
<g id="node1" class="node">
<title>AppComponent</title>
<polygon fill="#ffffb3" stroke="black" points="1801.94,-198 1696.06,-198 1696.06,-162 1801.94,-162 1801.94,-198"/>
<text text-anchor="middle" x="1749" y="-175.8" font-family="Times,serif" font-size="14.00">AppComponent</text>
</g>
<!-- AppModule -->
<g id="node8" class="node">
<title>AppModule</title>
<polygon fill="#8dd3c7" stroke="black" points="1257.66,-263 1254.66,-267 1233.66,-267 1230.66,-263 1174.34,-263 1174.34,-227 1257.66,-227 1257.66,-263"/>
<text text-anchor="middle" x="1216" y="-240.8" font-family="Times,serif" font-size="14.00">AppModule</text>
</g>
<!-- AppComponent&#45;&gt;AppModule -->
<g id="edge1" class="edge">
<title>AppComponent&#45;&gt;AppModule</title>
<path fill="none" stroke="black" d="M1749,-198.01C1749,-220.49 1749,-256 1749,-256 1749,-256 1267.82,-256 1267.82,-256"/>
<polygon fill="black" stroke="black" points="1267.82,-252.5 1257.82,-256 1267.82,-259.5 1267.82,-252.5"/>
</g>
<!-- FooterComponent -->
<g id="node2" class="node">
<title>FooterComponent</title>
<polygon fill="#ffffb3" stroke="black" points="1677.88,-198 1560.12,-198 1560.12,-162 1677.88,-162 1677.88,-198"/>
<text text-anchor="middle" x="1619" y="-175.8" font-family="Times,serif" font-size="14.00">FooterComponent</text>
</g>
<!-- FooterComponent&#45;&gt;AppModule -->
<g id="edge2" class="edge">
<title>FooterComponent&#45;&gt;AppModule</title>
<path fill="none" stroke="black" d="M1619,-198.13C1619,-218.57 1619,-249 1619,-249 1619,-249 1267.99,-249 1267.99,-249"/>
<polygon fill="black" stroke="black" points="1267.99,-245.5 1257.99,-249 1267.99,-252.5 1267.99,-245.5"/>
</g>
<!-- HeaderComponent -->
<g id="node3" class="node">
<title>HeaderComponent</title>
<polygon fill="#ffffb3" stroke="black" points="1541.74,-198 1420.26,-198 1420.26,-162 1541.74,-162 1541.74,-198"/>
<text text-anchor="middle" x="1481" y="-175.8" font-family="Times,serif" font-size="14.00">HeaderComponent</text>
</g>
<!-- HeaderComponent&#45;&gt;AppModule -->
<g id="edge3" class="edge">
<title>HeaderComponent&#45;&gt;AppModule</title>
<path fill="none" stroke="black" d="M1481,-198.27C1481,-216.56 1481,-242 1481,-242 1481,-242 1267.7,-242 1267.7,-242"/>
<polygon fill="black" stroke="black" points="1267.7,-238.5 1257.7,-242 1267.7,-245.5 1267.7,-238.5"/>
</g>
<!-- HomeComponent -->
<g id="node4" class="node">
<title>HomeComponent</title>
<polygon fill="#ffffb3" stroke="black" points="1401.55,-198 1286.45,-198 1286.45,-162 1401.55,-162 1401.55,-198"/>
<text text-anchor="middle" x="1344" y="-175.8" font-family="Times,serif" font-size="14.00">HomeComponent</text>
</g>
<!-- HomeComponent&#45;&gt;AppModule -->
<g id="edge4" class="edge">
<title>HomeComponent&#45;&gt;AppModule</title>
<path fill="none" stroke="black" d="M1344,-198.01C1344,-214.05 1344,-235 1344,-235 1344,-235 1267.91,-235 1267.91,-235"/>
<polygon fill="black" stroke="black" points="1267.91,-231.5 1257.91,-235 1267.91,-238.5 1267.91,-231.5"/>
</g>
<!-- NavComponent -->
<g id="node5" class="node">
<title>NavComponent</title>
<polygon fill="#ffffb3" stroke="black" points="1268.15,-198 1163.85,-198 1163.85,-162 1268.15,-162 1268.15,-198"/>
<text text-anchor="middle" x="1216" y="-175.8" font-family="Times,serif" font-size="14.00">NavComponent</text>
</g>
<!-- NavComponent&#45;&gt;AppModule -->
<g id="edge5" class="edge">
<title>NavComponent&#45;&gt;AppModule</title>
<path fill="none" stroke="black" d="M1216,-198.11C1216,-198.11 1216,-216.99 1216,-216.99"/>
<polygon fill="black" stroke="black" points="1212.5,-216.99 1216,-226.99 1219.5,-216.99 1212.5,-216.99"/>
</g>
<!-- NotFoundComponent -->
<g id="node6" class="node">
<title>NotFoundComponent</title>
<polygon fill="#ffffb3" stroke="black" points="1146.11,-198 1007.89,-198 1007.89,-162 1146.11,-162 1146.11,-198"/>
<text text-anchor="middle" x="1077" y="-175.8" font-family="Times,serif" font-size="14.00">NotFoundComponent</text>
</g>
<!-- NotFoundComponent&#45;&gt;AppModule -->
<g id="edge6" class="edge">
<title>NotFoundComponent&#45;&gt;AppModule</title>
<path fill="none" stroke="black" d="M1077,-198.01C1077,-214.05 1077,-235 1077,-235 1077,-235 1164.3,-235 1164.3,-235"/>
<polygon fill="black" stroke="black" points="1164.3,-238.5 1174.3,-235 1164.3,-231.5 1164.3,-238.5"/>
</g>
<!-- RedDirective -->
<g id="node7" class="node">
<title>RedDirective</title>
<polygon fill="#ffffb3" stroke="black" points="990.13,-198 899.87,-198 899.87,-162 990.13,-162 990.13,-198"/>
<text text-anchor="middle" x="945" y="-175.8" font-family="Times,serif" font-size="14.00">RedDirective</text>
</g>
<!-- RedDirective&#45;&gt;AppModule -->
<g id="edge7" class="edge">
<title>RedDirective&#45;&gt;AppModule</title>
<path fill="none" stroke="black" d="M945,-198.27C945,-216.56 945,-242 945,-242 945,-242 1164.25,-242 1164.25,-242"/>
<polygon fill="black" stroke="black" points="1164.25,-245.5 1174.25,-242 1164.25,-238.5 1164.25,-245.5"/>
</g>
<!-- AppComponent  -->
<g id="node11" class="node">
<title>AppComponent </title>
<polygon fill="#80b1d3" stroke="black" points="1270.44,-328 1161.56,-328 1161.56,-292 1270.44,-292 1270.44,-328"/>
<text text-anchor="middle" x="1216" y="-305.8" font-family="Times,serif" font-size="14.00">AppComponent </text>
</g>
<!-- AppModule&#45;&gt;AppComponent  -->
<g id="edge10" class="edge">
<title>AppModule&#45;&gt;AppComponent </title>
<path fill="none" stroke="black" stroke-dasharray="1,5" d="M1216,-263.11C1216,-263.11 1216,-281.99 1216,-281.99"/>
<polygon fill="black" stroke="black" points="1212.5,-281.99 1216,-291.99 1219.5,-281.99 1212.5,-281.99"/>
</g>
<!-- AppRoutingModule -->
<g id="node9" class="node">
<title>AppRoutingModule</title>
<polygon fill="#8dd3c7" stroke="black" points="876.27,-198 873.27,-202 852.27,-202 849.27,-198 747.73,-198 747.73,-162 876.27,-162 876.27,-198"/>
<text text-anchor="middle" x="812" y="-175.8" font-family="Times,serif" font-size="14.00">AppRoutingModule</text>
</g>
<!-- AppRoutingModule&#45;&gt;AppModule -->
<g id="edge8" class="edge">
<title>AppRoutingModule&#45;&gt;AppModule</title>
<path fill="none" stroke="black" d="M812,-198.13C812,-218.57 812,-249 812,-249 812,-249 1164.29,-249 1164.29,-249"/>
<polygon fill="black" stroke="black" points="1164.29,-252.5 1174.29,-249 1164.29,-245.5 1164.29,-252.5"/>
</g>
<!-- ProductModule -->
<g id="node10" class="node">
<title>ProductModule</title>
<polygon fill="#8dd3c7" stroke="black" points="729.6,-198 726.6,-202 705.6,-202 702.6,-198 626.4,-198 626.4,-162 729.6,-162 729.6,-198"/>
<text text-anchor="middle" x="678" y="-175.8" font-family="Times,serif" font-size="14.00">ProductModule</text>
</g>
<!-- ProductModule&#45;&gt;AppModule -->
<g id="edge9" class="edge">
<title>ProductModule&#45;&gt;AppModule</title>
<path fill="none" stroke="black" d="M678,-198.01C678,-220.49 678,-256 678,-256 678,-256 1164.23,-256 1164.23,-256"/>
<polygon fill="black" stroke="black" points="1164.23,-259.5 1174.23,-256 1164.23,-252.5 1164.23,-259.5"/>
</g>
<!-- CreateComponent -->
<g id="node12" class="node">
<title>CreateComponent</title>
<polygon fill="#ffffb3" stroke="black" points="1333.86,-122 1216.14,-122 1216.14,-86 1333.86,-86 1333.86,-122"/>
<text text-anchor="middle" x="1275" y="-99.8" font-family="Times,serif" font-size="14.00">CreateComponent</text>
</g>
<!-- CreateComponent&#45;&gt;ProductModule -->
<g id="edge11" class="edge">
<title>CreateComponent&#45;&gt;ProductModule</title>
<path fill="none" stroke="black" d="M1242.2,-122.15C1242.2,-135.74 1242.2,-152 1242.2,-152 1242.2,-152 718.5,-152 718.5,-152 718.5,-152 718.5,-152.98 718.5,-152.98"/>
<polygon fill="black" stroke="black" points="715,-151.79 718.5,-161.79 722,-151.79 715,-151.79"/>
</g>
<!-- ProductCancelButtonComponent -->
<g id="node13" class="node">
<title>ProductCancelButtonComponent</title>
<polygon fill="#ffffb3" stroke="black" points="1197.87,-122 996.13,-122 996.13,-86 1197.87,-86 1197.87,-122"/>
<text text-anchor="middle" x="1097" y="-99.8" font-family="Times,serif" font-size="14.00">ProductCancelButtonComponent</text>
</g>
<!-- ProductCancelButtonComponent&#45;&gt;ProductModule -->
<g id="edge12" class="edge">
<title>ProductCancelButtonComponent&#45;&gt;ProductModule</title>
<path fill="none" stroke="black" d="M1002,-122.11C1002,-131.9 1002,-142 1002,-142 1002,-142 707.45,-142 707.45,-142 707.45,-142 707.45,-151.89 707.45,-151.89"/>
<polygon fill="black" stroke="black" points="703.95,-151.89 707.45,-161.89 710.95,-151.89 703.95,-151.89"/>
</g>
<!-- ProductComponent -->
<g id="node14" class="node">
<title>ProductComponent</title>
<polygon fill="#ffffb3" stroke="black" points="978.38,-122 853.62,-122 853.62,-86 978.38,-86 978.38,-122"/>
<text text-anchor="middle" x="916" y="-99.8" font-family="Times,serif" font-size="14.00">ProductComponent</text>
</g>
<!-- ProductComponent&#45;&gt;ProductModule -->
<g id="edge13" class="edge">
<title>ProductComponent&#45;&gt;ProductModule</title>
<path fill="none" stroke="black" d="M864.97,-122.21C864.97,-127.55 864.97,-132 864.97,-132 864.97,-132 696.4,-132 696.4,-132 696.4,-132 696.4,-151.85 696.4,-151.85"/>
<polygon fill="black" stroke="black" points="692.9,-151.85 696.4,-161.85 699.9,-151.85 692.9,-151.85"/>
</g>
<!-- ProductDeleteComponent -->
<g id="node15" class="node">
<title>ProductDeleteComponent</title>
<polygon fill="#ffffb3" stroke="black" points="835.91,-122 674.09,-122 674.09,-86 835.91,-86 835.91,-122"/>
<text text-anchor="middle" x="755" y="-99.8" font-family="Times,serif" font-size="14.00">ProductDeleteComponent</text>
</g>
<!-- ProductDeleteComponent&#45;&gt;ProductModule -->
<g id="edge14" class="edge">
<title>ProductDeleteComponent&#45;&gt;ProductModule</title>
<path fill="none" stroke="black" d="M685.34,-122.01C685.34,-122.01 685.34,-151.85 685.34,-151.85"/>
<polygon fill="black" stroke="black" points="681.84,-151.85 685.34,-161.85 688.84,-151.85 681.84,-151.85"/>
</g>
<!-- ReadComponent -->
<g id="node16" class="node">
<title>ReadComponent</title>
<polygon fill="#ffffb3" stroke="black" points="656.1,-122 545.9,-122 545.9,-86 656.1,-86 656.1,-122"/>
<text text-anchor="middle" x="601" y="-99.8" font-family="Times,serif" font-size="14.00">ReadComponent</text>
</g>
<!-- ReadComponent&#45;&gt;ProductModule -->
<g id="edge15" class="edge">
<title>ReadComponent&#45;&gt;ProductModule</title>
<path fill="none" stroke="black" d="M641.25,-122.01C641.25,-122.01 641.25,-151.85 641.25,-151.85"/>
<polygon fill="black" stroke="black" points="637.75,-151.85 641.25,-161.85 644.75,-151.85 637.75,-151.85"/>
</g>
<!-- ReadTableExampleComponent -->
<g id="node17" class="node">
<title>ReadTableExampleComponent</title>
<polygon fill="#ffffb3" stroke="black" points="527.73,-122 336.27,-122 336.27,-86 527.73,-86 527.73,-122"/>
<text text-anchor="middle" x="432" y="-99.8" font-family="Times,serif" font-size="14.00">ReadTableExampleComponent</text>
</g>
<!-- ReadTableExampleComponent&#45;&gt;ProductModule -->
<g id="edge16" class="edge">
<title>ReadTableExampleComponent&#45;&gt;ProductModule</title>
<path fill="none" stroke="black" d="M432,-122.31C432,-142.15 432,-171 432,-171 432,-171 616.43,-171 616.43,-171"/>
<polygon fill="black" stroke="black" points="616.43,-174.5 626.43,-171 616.43,-167.5 616.43,-174.5"/>
</g>
<!-- UpdateComponent -->
<g id="node18" class="node">
<title>UpdateComponent</title>
<polygon fill="#ffffb3" stroke="black" points="317.76,-122 196.24,-122 196.24,-86 317.76,-86 317.76,-122"/>
<text text-anchor="middle" x="257" y="-99.8" font-family="Times,serif" font-size="14.00">UpdateComponent</text>
</g>
<!-- UpdateComponent&#45;&gt;ProductModule -->
<g id="edge17" class="edge">
<title>UpdateComponent&#45;&gt;ProductModule</title>
<path fill="none" stroke="black" d="M257,-122.01C257,-144.49 257,-180 257,-180 257,-180 616.38,-180 616.38,-180"/>
<polygon fill="black" stroke="black" points="616.38,-183.5 626.38,-180 616.38,-176.5 616.38,-183.5"/>
</g>
<!-- ProductRoutingModule -->
<g id="node19" class="node">
<title>ProductRoutingModule</title>
<polygon fill="#8dd3c7" stroke="black" points="172.22,-122 169.22,-126 148.22,-126 145.22,-122 23.78,-122 23.78,-86 172.22,-86 172.22,-122"/>
<text text-anchor="middle" x="98" y="-99.8" font-family="Times,serif" font-size="14.00">ProductRoutingModule</text>
</g>
<!-- ProductRoutingModule&#45;&gt;ProductModule -->
<g id="edge18" class="edge">
<title>ProductRoutingModule&#45;&gt;ProductModule</title>
<path fill="none" stroke="black" d="M98,-122.03C98,-146.98 98,-189 98,-189 98,-189 616.27,-189 616.27,-189"/>
<polygon fill="black" stroke="black" points="616.27,-192.5 626.27,-189 616.27,-185.5 616.27,-192.5"/>
</g>
</g>
</svg>
