<?xml version="1.0" encoding="UTF-8" standalone="no"?>
<!DOCTYPE svg PUBLIC "-//W3C//DTD SVG 1.1//EN"
 "http://www.w3.org/Graphics/SVG/1.1/DTD/svg11.dtd">
<!-- Generated by graphviz version 2.44.1 (20200629.0846)
 -->
<!-- Title: dependencies Pages: 1 -->
<svg width="1186pt" height="211pt"
 viewBox="0.00 0.00 1186.00 211.00" xmlns="http://www.w3.org/2000/svg" xmlns:xlink="http://www.w3.org/1999/xlink">
<g id="graph0" class="graph" transform="scale(1 1) rotate(0) translate(4 207)">
<title>dependencies</title>
<polygon fill="white" stroke="transparent" points="-4,4 -4,-207 1182,-207 1182,4 -4,4"/>
<text text-anchor="start" x="568.01" y="-42.4" font-family="sans-serif" font-weight="bold" font-size="14.00">Legend</text>
<polygon fill="#ffffb3" stroke="transparent" points="355,-10 355,-30 375,-30 375,-10 355,-10"/>
<text text-anchor="start" x="378.63" y="-15.4" font-family="sans-serif" font-size="14.00"> &#160;Declarations</text>
<polygon fill="#8dd3c7" stroke="transparent" points="468,-10 468,-30 488,-30 488,-10 468,-10"/>
<text text-anchor="start" x="491.73" y="-15.4" font-family="sans-serif" font-size="14.00"> &#160;Module</text>
<polygon fill="#80b1d3" stroke="transparent" points="554,-10 554,-30 574,-30 574,-10 554,-10"/>
<text text-anchor="start" x="577.78" y="-15.4" font-family="sans-serif" font-size="14.00"> &#160;Bootstrap</text>
<polygon fill="#fdb462" stroke="transparent" points="651,-10 651,-30 671,-30 671,-10 651,-10"/>
<text text-anchor="start" x="674.67" y="-15.4" font-family="sans-serif" font-size="14.00"> &#160;Providers</text>
<polygon fill="#fb8072" stroke="transparent" points="747,-10 747,-30 767,-30 767,-10 747,-10"/>
<text text-anchor="start" x="770.73" y="-15.4" font-family="sans-serif" font-size="14.00"> &#160;Exports</text>
<g id="clust1" class="cluster">
<title>cluster_ProductModule</title>
<polygon fill="none" stroke="black" stroke-dasharray="1,5" points="8,-70 8,-195 1170,-195 1170,-70 8,-70"/>
</g>
<g id="clust9" class="cluster">
<title>cluster_ProductModule_imports</title>
<polygon fill="none" stroke="black" points="998,-78 998,-130 1162,-130 1162,-78 998,-78"/>
</g>
<g id="clust2" class="cluster">
<title>cluster_ProductModule_declarations</title>
<polygon fill="none" stroke="black" points="16,-78 16,-130 990,-130 990,-78 16,-78"/>
</g>
<!-- CreateComponent -->
<g id="node1" class="node">
<title>CreateComponent</title>
<polygon fill="#ffffb3" stroke="black" points="981.86,-122 864.14,-122 864.14,-86 981.86,-86 981.86,-122"/>
<text text-anchor="middle" x="923" y="-99.8" font-family="Times,serif" font-size="14.00">CreateComponent</text>
</g>
<!-- ProductModule -->
<g id="node7" class="node">
<title>ProductModule</title>
<polygon fill="#8dd3c7" stroke="black" points="615.6,-187 612.6,-191 591.6,-191 588.6,-187 512.4,-187 512.4,-151 615.6,-151 615.6,-187"/>
<text text-anchor="middle" x="564" y="-164.8" font-family="Times,serif" font-size="14.00">ProductModule</text>
</g>
<!-- CreateComponent&#45;&gt;ProductModule -->
<g id="edge1" class="edge">
<title>CreateComponent&#45;&gt;ProductModule</title>
<path fill="none" stroke="black" d="M923,-122.11C923,-141.34 923,-169 923,-169 923,-169 625.82,-169 625.82,-169"/>
<polygon fill="black" stroke="black" points="625.82,-165.5 615.82,-169 625.82,-172.5 625.82,-165.5"/>
</g>
<!-- ProductCancelButtonComponent -->
<g id="node2" class="node">
<title>ProductCancelButtonComponent</title>
<polygon fill="#ffffb3" stroke="black" points="845.87,-122 644.13,-122 644.13,-86 845.87,-86 845.87,-122"/>
<text text-anchor="middle" x="745" y="-99.8" font-family="Times,serif" font-size="14.00">ProductCancelButtonComponent</text>
</g>
<!-- ProductCancelButtonComponent&#45;&gt;ProductModule -->
<g id="edge2" class="edge">
<title>ProductCancelButtonComponent&#45;&gt;ProductModule</title>
<path fill="none" stroke="black" d="M745,-122.03C745,-138.4 745,-160 745,-160 745,-160 625.87,-160 625.87,-160"/>
<polygon fill="black" stroke="black" points="625.87,-156.5 615.87,-160 625.87,-163.5 625.87,-156.5"/>
</g>
<!-- ProductComponent -->
<g id="node3" class="node">
<title>ProductComponent</title>
<polygon fill="#ffffb3" stroke="black" points="626.38,-122 501.62,-122 501.62,-86 626.38,-86 626.38,-122"/>
<text text-anchor="middle" x="564" y="-99.8" font-family="Times,serif" font-size="14.00">ProductComponent</text>
</g>
<!-- ProductComponent&#45;&gt;ProductModule -->
<g id="edge3" class="edge">
<title>ProductComponent&#45;&gt;ProductModule</title>
<path fill="none" stroke="black" d="M564,-122.11C564,-122.11 564,-140.99 564,-140.99"/>
<polygon fill="black" stroke="black" points="560.5,-140.99 564,-150.99 567.5,-140.99 560.5,-140.99"/>
</g>
<!-- ReadComponent -->
<g id="node4" class="node">
<title>ReadComponent</title>
<polygon fill="#ffffb3" stroke="black" points="484.1,-122 373.9,-122 373.9,-86 484.1,-86 484.1,-122"/>
<text text-anchor="middle" x="429" y="-99.8" font-family="Times,serif" font-size="14.00">ReadComponent</text>
</g>
<!-- ReadComponent&#45;&gt;ProductModule -->
<g id="edge4" class="edge">
<title>ReadComponent&#45;&gt;ProductModule</title>
<path fill="none" stroke="black" d="M429,-122.03C429,-138.4 429,-160 429,-160 429,-160 502.19,-160 502.19,-160"/>
<polygon fill="black" stroke="black" points="502.19,-163.5 512.19,-160 502.19,-156.5 502.19,-163.5"/>
</g>
<!-- ReadTableExampleComponent -->
<g id="node5" class="node">
<title>ReadTableExampleComponent</title>
<polygon fill="#ffffb3" stroke="black" points="355.73,-122 164.27,-122 164.27,-86 355.73,-86 355.73,-122"/>
<text text-anchor="middle" x="260" y="-99.8" font-family="Times,serif" font-size="14.00">ReadTableExampleComponent</text>
</g>
<!-- ReadTableExampleComponent&#45;&gt;ProductModule -->
<g id="edge5" class="edge">
<title>ReadTableExampleComponent&#45;&gt;ProductModule</title>
<path fill="none" stroke="black" d="M260,-122.11C260,-141.34 260,-169 260,-169 260,-169 502.43,-169 502.43,-169"/>
<polygon fill="black" stroke="black" points="502.43,-172.5 512.43,-169 502.43,-165.5 502.43,-172.5"/>
</g>
<!-- UpdateComponent -->
<g id="node6" class="node">
<title>UpdateComponent</title>
<polygon fill="#ffffb3" stroke="black" points="145.76,-122 24.24,-122 24.24,-86 145.76,-86 145.76,-122"/>
<text text-anchor="middle" x="85" y="-99.8" font-family="Times,serif" font-size="14.00">UpdateComponent</text>
</g>
<!-- UpdateComponent&#45;&gt;ProductModule -->
<g id="edge6" class="edge">
<title>UpdateComponent&#45;&gt;ProductModule</title>
<path fill="none" stroke="black" d="M85,-122.29C85,-144.21 85,-178 85,-178 85,-178 502.28,-178 502.28,-178"/>
<polygon fill="black" stroke="black" points="502.28,-181.5 512.28,-178 502.28,-174.5 502.28,-181.5"/>
</g>
<!-- ProductRoutingModule -->
<g id="node8" class="node">
<title>ProductRoutingModule</title>
<polygon fill="#8dd3c7" stroke="black" points="1154.22,-122 1151.22,-126 1130.22,-126 1127.22,-122 1005.78,-122 1005.78,-86 1154.22,-86 1154.22,-122"/>
<text text-anchor="middle" x="1080" y="-99.8" font-family="Times,serif" font-size="14.00">ProductRoutingModule</text>
</g>
<!-- ProductRoutingModule&#45;&gt;ProductModule -->
<g id="edge7" class="edge">
<title>ProductRoutingModule&#45;&gt;ProductModule</title>
<path fill="none" stroke="black" d="M1080,-122.29C1080,-144.21 1080,-178 1080,-178 1080,-178 625.84,-178 625.84,-178"/>
<polygon fill="black" stroke="black" points="625.84,-174.5 615.84,-178 625.84,-181.5 625.84,-174.5"/>
</g>
</g>
</svg>
