<?xml version="1.0" encoding="UTF-8" standalone="no"?>
<!DOCTYPE svg PUBLIC "-//W3C//DTD SVG 1.1//EN"
 "http://www.w3.org/Graphics/SVG/1.1/DTD/svg11.dtd">
<!-- Generated by graphviz version 2.44.1 (20200629.0846)
 -->
<!-- Title: dependencies Pages: 1 -->
<svg width="1366pt" height="211pt"
 viewBox="0.00 0.00 1366.00 211.00" xmlns="http://www.w3.org/2000/svg" xmlns:xlink="http://www.w3.org/1999/xlink">
<g id="graph0" class="graph" transform="scale(1 1) rotate(0) translate(4 207)">
<title>dependencies</title>
<polygon fill="white" stroke="transparent" points="-4,4 -4,-207 1362,-207 1362,4 -4,4"/>
<text text-anchor="start" x="658.01" y="-42.4" font-family="sans-serif" font-weight="bold" font-size="14.00">Legend</text>
<polygon fill="#ffffb3" stroke="transparent" points="445,-10 445,-30 465,-30 465,-10 445,-10"/>
<text text-anchor="start" x="468.63" y="-15.4" font-family="sans-serif" font-size="14.00"> &#160;Declarations</text>
<polygon fill="#8dd3c7" stroke="transparent" points="558,-10 558,-30 578,-30 578,-10 558,-10"/>
<text text-anchor="start" x="581.73" y="-15.4" font-family="sans-serif" font-size="14.00"> &#160;Module</text>
<polygon fill="#80b1d3" stroke="transparent" points="644,-10 644,-30 664,-30 664,-10 644,-10"/>
<text text-anchor="start" x="667.78" y="-15.4" font-family="sans-serif" font-size="14.00"> &#160;Bootstrap</text>
<polygon fill="#fdb462" stroke="transparent" points="741,-10 741,-30 761,-30 761,-10 741,-10"/>
<text text-anchor="start" x="764.67" y="-15.4" font-family="sans-serif" font-size="14.00"> &#160;Providers</text>
<polygon fill="#fb8072" stroke="transparent" points="837,-10 837,-30 857,-30 857,-10 837,-10"/>
<text text-anchor="start" x="860.73" y="-15.4" font-family="sans-serif" font-size="14.00"> &#160;Exports</text>
<g id="clust1" class="cluster">
<title>cluster_ProductModule</title>
<polygon fill="none" stroke="black" stroke-dasharray="1,5" points="8,-70 8,-195 1350,-195 1350,-70 8,-70"/>
</g>
<g id="clust10" class="cluster">
<title>cluster_ProductModule_imports</title>
<polygon fill="none" stroke="black" points="1178,-78 1178,-130 1342,-130 1342,-78 1178,-78"/>
</g>
<g id="clust2" class="cluster">
<title>cluster_ProductModule_declarations</title>
<polygon fill="none" stroke="black" points="16,-78 16,-130 1170,-130 1170,-78 16,-78"/>
</g>
<!-- CreateComponent -->
<g id="node1" class="node">
<title>CreateComponent</title>
<polygon fill="#ffffb3" stroke="black" points="1161.86,-122 1044.14,-122 1044.14,-86 1161.86,-86 1161.86,-122"/>
<text text-anchor="middle" x="1103" y="-99.8" font-family="Times,serif" font-size="14.00">CreateComponent</text>
</g>
<!-- ProductModule -->
<g id="node8" class="node">
<title>ProductModule</title>
<polygon fill="#8dd3c7" stroke="black" points="714.6,-187 711.6,-191 690.6,-191 687.6,-187 611.4,-187 611.4,-151 714.6,-151 714.6,-187"/>
<text text-anchor="middle" x="663" y="-164.8" font-family="Times,serif" font-size="14.00">ProductModule</text>
</g>
<!-- CreateComponent&#45;&gt;ProductModule -->
<g id="edge1" class="edge">
<title>CreateComponent&#45;&gt;ProductModule</title>
<path fill="none" stroke="black" d="M1103,-122.11C1103,-141.34 1103,-169 1103,-169 1103,-169 724.77,-169 724.77,-169"/>
<polygon fill="black" stroke="black" points="724.77,-165.5 714.77,-169 724.77,-172.5 724.77,-165.5"/>
</g>
<!-- ProductCancelButtonComponent -->
<g id="node2" class="node">
<title>ProductCancelButtonComponent</title>
<polygon fill="#ffffb3" stroke="black" points="1025.87,-122 824.13,-122 824.13,-86 1025.87,-86 1025.87,-122"/>
<text text-anchor="middle" x="925" y="-99.8" font-family="Times,serif" font-size="14.00">ProductCancelButtonComponent</text>
</g>
<!-- ProductCancelButtonComponent&#45;&gt;ProductModule -->
<g id="edge2" class="edge">
<title>ProductCancelButtonComponent&#45;&gt;ProductModule</title>
<path fill="none" stroke="black" d="M925,-122.03C925,-138.4 925,-160 925,-160 925,-160 724.76,-160 724.76,-160"/>
<polygon fill="black" stroke="black" points="724.76,-156.5 714.76,-160 724.76,-163.5 724.76,-156.5"/>
</g>
<!-- ProductComponent -->
<g id="node3" class="node">
<title>ProductComponent</title>
<polygon fill="#ffffb3" stroke="black" points="806.38,-122 681.62,-122 681.62,-86 806.38,-86 806.38,-122"/>
<text text-anchor="middle" x="744" y="-99.8" font-family="Times,serif" font-size="14.00">ProductComponent</text>
</g>
<!-- ProductComponent&#45;&gt;ProductModule -->
<g id="edge3" class="edge">
<title>ProductComponent&#45;&gt;ProductModule</title>
<path fill="none" stroke="black" d="M698.05,-122.11C698.05,-122.11 698.05,-140.99 698.05,-140.99"/>
<polygon fill="black" stroke="black" points="694.55,-140.99 698.05,-150.99 701.55,-140.99 694.55,-140.99"/>
</g>
<!-- ProductDeleteComponent -->
<g id="node4" class="node">
<title>ProductDeleteComponent</title>
<polygon fill="#ffffb3" stroke="black" points="663.91,-122 502.09,-122 502.09,-86 663.91,-86 663.91,-122"/>
<text text-anchor="middle" x="583" y="-99.8" font-family="Times,serif" font-size="14.00">ProductDeleteComponent</text>
</g>
<!-- ProductDeleteComponent&#45;&gt;ProductModule -->
<g id="edge4" class="edge">
<title>ProductDeleteComponent&#45;&gt;ProductModule</title>
<path fill="none" stroke="black" d="M637.58,-122.11C637.58,-122.11 637.58,-140.99 637.58,-140.99"/>
<polygon fill="black" stroke="black" points="634.08,-140.99 637.58,-150.99 641.08,-140.99 634.08,-140.99"/>
</g>
<!-- ReadComponent -->
<g id="node5" class="node">
<title>ReadComponent</title>
<polygon fill="#ffffb3" stroke="black" points="484.1,-122 373.9,-122 373.9,-86 484.1,-86 484.1,-122"/>
<text text-anchor="middle" x="429" y="-99.8" font-family="Times,serif" font-size="14.00">ReadComponent</text>
</g>
<!-- ReadComponent&#45;&gt;ProductModule -->
<g id="edge5" class="edge">
<title>ReadComponent&#45;&gt;ProductModule</title>
<path fill="none" stroke="black" d="M429,-122.03C429,-138.4 429,-160 429,-160 429,-160 601.36,-160 601.36,-160"/>
<polygon fill="black" stroke="black" points="601.36,-163.5 611.36,-160 601.36,-156.5 601.36,-163.5"/>
</g>
<!-- ReadTableExampleComponent -->
<g id="node6" class="node">
<title>ReadTableExampleComponent</title>
<polygon fill="#ffffb3" stroke="black" points="355.73,-122 164.27,-122 164.27,-86 355.73,-86 355.73,-122"/>
<text text-anchor="middle" x="260" y="-99.8" font-family="Times,serif" font-size="14.00">ReadTableExampleComponent</text>
</g>
<!-- ReadTableExampleComponent&#45;&gt;ProductModule -->
<g id="edge6" class="edge">
<title>ReadTableExampleComponent&#45;&gt;ProductModule</title>
<path fill="none" stroke="black" d="M260,-122.11C260,-141.34 260,-169 260,-169 260,-169 601.14,-169 601.14,-169"/>
<polygon fill="black" stroke="black" points="601.14,-172.5 611.14,-169 601.14,-165.5 601.14,-172.5"/>
</g>
<!-- UpdateComponent -->
<g id="node7" class="node">
<title>UpdateComponent</title>
<polygon fill="#ffffb3" stroke="black" points="145.76,-122 24.24,-122 24.24,-86 145.76,-86 145.76,-122"/>
<text text-anchor="middle" x="85" y="-99.8" font-family="Times,serif" font-size="14.00">UpdateComponent</text>
</g>
<!-- UpdateComponent&#45;&gt;ProductModule -->
<g id="edge7" class="edge">
<title>UpdateComponent&#45;&gt;ProductModule</title>
<path fill="none" stroke="black" d="M85,-122.29C85,-144.21 85,-178 85,-178 85,-178 601.2,-178 601.2,-178"/>
<polygon fill="black" stroke="black" points="601.2,-181.5 611.2,-178 601.2,-174.5 601.2,-181.5"/>
</g>
<!-- ProductRoutingModule -->
<g id="node9" class="node">
<title>ProductRoutingModule</title>
<polygon fill="#8dd3c7" stroke="black" points="1334.22,-122 1331.22,-126 1310.22,-126 1307.22,-122 1185.78,-122 1185.78,-86 1334.22,-86 1334.22,-122"/>
<text text-anchor="middle" x="1260" y="-99.8" font-family="Times,serif" font-size="14.00">ProductRoutingModule</text>
</g>
<!-- ProductRoutingModule&#45;&gt;ProductModule -->
<g id="edge8" class="edge">
<title>ProductRoutingModule&#45;&gt;ProductModule</title>
<path fill="none" stroke="black" d="M1260,-122.29C1260,-144.21 1260,-178 1260,-178 1260,-178 724.68,-178 724.68,-178"/>
<polygon fill="black" stroke="black" points="724.68,-174.5 714.68,-178 724.68,-181.5 724.68,-174.5"/>
</g>
</g>
</svg>
