<?xml version="1.0" encoding="UTF-8" standalone="no"?>
<!DOCTYPE svg PUBLIC "-//W3C//DTD SVG 1.1//EN"
 "http://www.w3.org/Graphics/SVG/1.1/DTD/svg11.dtd">
<!-- Generated by graphviz version 2.44.1 (20200629.0846)
 -->
<!-- Title: dependencies Pages: 1 -->
<svg width="1232pt" height="284pt"
 viewBox="0.00 0.00 1232.00 284.00" xmlns="http://www.w3.org/2000/svg" xmlns:xlink="http://www.w3.org/1999/xlink">
<g id="graph0" class="graph" transform="scale(1 1) rotate(0) translate(4 280)">
<title>dependencies</title>
<polygon fill="white" stroke="transparent" points="-4,4 -4,-280 1228,-280 1228,4 -4,4"/>
<text text-anchor="start" x="591.01" y="-42.4" font-family="sans-serif" font-weight="bold" font-size="14.00">Legend</text>
<polygon fill="#ffffb3" stroke="transparent" points="378,-10 378,-30 398,-30 398,-10 378,-10"/>
<text text-anchor="start" x="401.63" y="-15.4" font-family="sans-serif" font-size="14.00"> &#160;Declarations</text>
<polygon fill="#8dd3c7" stroke="transparent" points="491,-10 491,-30 511,-30 511,-10 491,-10"/>
<text text-anchor="start" x="514.73" y="-15.4" font-family="sans-serif" font-size="14.00"> &#160;Module</text>
<polygon fill="#80b1d3" stroke="transparent" points="577,-10 577,-30 597,-30 597,-10 577,-10"/>
<text text-anchor="start" x="600.78" y="-15.4" font-family="sans-serif" font-size="14.00"> &#160;Bootstrap</text>
<polygon fill="#fdb462" stroke="transparent" points="674,-10 674,-30 694,-30 694,-10 674,-10"/>
<text text-anchor="start" x="697.67" y="-15.4" font-family="sans-serif" font-size="14.00"> &#160;Providers</text>
<polygon fill="#fb8072" stroke="transparent" points="770,-10 770,-30 790,-30 790,-10 770,-10"/>
<text text-anchor="start" x="793.73" y="-15.4" font-family="sans-serif" font-size="14.00"> &#160;Exports</text>
<g id="clust1" class="cluster">
<title>cluster_AppModule</title>
<polygon fill="none" stroke="black" stroke-dasharray="1,5" points="8,-70 8,-268 1216,-268 1216,-70 8,-70"/>
</g>
<g id="clust10" class="cluster">
<title>cluster_AppModule_imports</title>
<polygon fill="none" stroke="black" points="942,-78 942,-130 1208,-130 1208,-78 942,-78"/>
</g>
<g id="clust2" class="cluster">
<title>cluster_AppModule_declarations</title>
<polygon fill="none" stroke="black" points="16,-78 16,-130 934,-130 934,-78 16,-78"/>
</g>
<g id="clust12" class="cluster">
<title>cluster_AppModule_bootstrap</title>
<polygon fill="none" stroke="black" points="543,-208 543,-260 667,-260 667,-208 543,-208"/>
</g>
<!-- AppComponent -->
<g id="node1" class="node">
<title>AppComponent</title>
<polygon fill="#ffffb3" stroke="black" points="925.94,-122 820.06,-122 820.06,-86 925.94,-86 925.94,-122"/>
<text text-anchor="middle" x="873" y="-99.8" font-family="Times,serif" font-size="14.00">AppComponent</text>
</g>
<!-- AppModule -->
<g id="node8" class="node">
<title>AppModule</title>
<polygon fill="#8dd3c7" stroke="black" points="646.66,-187 643.66,-191 622.66,-191 619.66,-187 563.34,-187 563.34,-151 646.66,-151 646.66,-187"/>
<text text-anchor="middle" x="605" y="-164.8" font-family="Times,serif" font-size="14.00">AppModule</text>
</g>
<!-- AppComponent&#45;&gt;AppModule -->
<g id="edge1" class="edge">
<title>AppComponent&#45;&gt;AppModule</title>
<path fill="none" stroke="black" d="M873,-122.27C873,-140.56 873,-166 873,-166 873,-166 656.88,-166 656.88,-166"/>
<polygon fill="black" stroke="black" points="656.88,-162.5 646.88,-166 656.87,-169.5 656.88,-162.5"/>
</g>
<!-- FooterComponent -->
<g id="node2" class="node">
<title>FooterComponent</title>
<polygon fill="#ffffb3" stroke="black" points="801.88,-122 684.12,-122 684.12,-86 801.88,-86 801.88,-122"/>
<text text-anchor="middle" x="743" y="-99.8" font-family="Times,serif" font-size="14.00">FooterComponent</text>
</g>
<!-- FooterComponent&#45;&gt;AppModule -->
<g id="edge2" class="edge">
<title>FooterComponent&#45;&gt;AppModule</title>
<path fill="none" stroke="black" d="M743,-122.01C743,-138.05 743,-159 743,-159 743,-159 656.78,-159 656.78,-159"/>
<polygon fill="black" stroke="black" points="656.78,-155.5 646.78,-159 656.78,-162.5 656.78,-155.5"/>
</g>
<!-- HeaderComponent -->
<g id="node3" class="node">
<title>HeaderComponent</title>
<polygon fill="#ffffb3" stroke="black" points="665.74,-122 544.26,-122 544.26,-86 665.74,-86 665.74,-122"/>
<text text-anchor="middle" x="605" y="-99.8" font-family="Times,serif" font-size="14.00">HeaderComponent</text>
</g>
<!-- HeaderComponent&#45;&gt;AppModule -->
<g id="edge3" class="edge">
<title>HeaderComponent&#45;&gt;AppModule</title>
<path fill="none" stroke="black" d="M605,-122.11C605,-122.11 605,-140.99 605,-140.99"/>
<polygon fill="black" stroke="black" points="601.5,-140.99 605,-150.99 608.5,-140.99 601.5,-140.99"/>
</g>
<!-- HomeComponent -->
<g id="node4" class="node">
<title>HomeComponent</title>
<polygon fill="#ffffb3" stroke="black" points="525.55,-122 410.45,-122 410.45,-86 525.55,-86 525.55,-122"/>
<text text-anchor="middle" x="468" y="-99.8" font-family="Times,serif" font-size="14.00">HomeComponent</text>
</g>
<!-- HomeComponent&#45;&gt;AppModule -->
<g id="edge4" class="edge">
<title>HomeComponent&#45;&gt;AppModule</title>
<path fill="none" stroke="black" d="M468,-122.01C468,-138.05 468,-159 468,-159 468,-159 553.15,-159 553.15,-159"/>
<polygon fill="black" stroke="black" points="553.15,-162.5 563.15,-159 553.15,-155.5 553.15,-162.5"/>
</g>
<!-- NavComponent -->
<g id="node5" class="node">
<title>NavComponent</title>
<polygon fill="#ffffb3" stroke="black" points="392.15,-122 287.85,-122 287.85,-86 392.15,-86 392.15,-122"/>
<text text-anchor="middle" x="340" y="-99.8" font-family="Times,serif" font-size="14.00">NavComponent</text>
</g>
<!-- NavComponent&#45;&gt;AppModule -->
<g id="edge5" class="edge">
<title>NavComponent&#45;&gt;AppModule</title>
<path fill="none" stroke="black" d="M340,-122.27C340,-140.56 340,-166 340,-166 340,-166 553.3,-166 553.3,-166"/>
<polygon fill="black" stroke="black" points="553.3,-169.5 563.3,-166 553.3,-162.5 553.3,-169.5"/>
</g>
<!-- NotFoundComponent -->
<g id="node6" class="node">
<title>NotFoundComponent</title>
<polygon fill="#ffffb3" stroke="black" points="270.11,-122 131.89,-122 131.89,-86 270.11,-86 270.11,-122"/>
<text text-anchor="middle" x="201" y="-99.8" font-family="Times,serif" font-size="14.00">NotFoundComponent</text>
</g>
<!-- NotFoundComponent&#45;&gt;AppModule -->
<g id="edge6" class="edge">
<title>NotFoundComponent&#45;&gt;AppModule</title>
<path fill="none" stroke="black" d="M201,-122.13C201,-142.57 201,-173 201,-173 201,-173 553.29,-173 553.29,-173"/>
<polygon fill="black" stroke="black" points="553.29,-176.5 563.29,-173 553.29,-169.5 553.29,-176.5"/>
</g>
<!-- RedDirective -->
<g id="node7" class="node">
<title>RedDirective</title>
<polygon fill="#ffffb3" stroke="black" points="114.13,-122 23.87,-122 23.87,-86 114.13,-86 114.13,-122"/>
<text text-anchor="middle" x="69" y="-99.8" font-family="Times,serif" font-size="14.00">RedDirective</text>
</g>
<!-- RedDirective&#45;&gt;AppModule -->
<g id="edge7" class="edge">
<title>RedDirective&#45;&gt;AppModule</title>
<path fill="none" stroke="black" d="M69,-122.01C69,-144.49 69,-180 69,-180 69,-180 552.94,-180 552.94,-180"/>
<polygon fill="black" stroke="black" points="552.94,-183.5 562.94,-180 552.94,-176.5 552.94,-183.5"/>
</g>
<!-- AppComponent  -->
<g id="node11" class="node">
<title>AppComponent </title>
<polygon fill="#80b1d3" stroke="black" points="659.44,-252 550.56,-252 550.56,-216 659.44,-216 659.44,-252"/>
<text text-anchor="middle" x="605" y="-229.8" font-family="Times,serif" font-size="14.00">AppComponent </text>
</g>
<!-- AppModule&#45;&gt;AppComponent  -->
<g id="edge10" class="edge">
<title>AppModule&#45;&gt;AppComponent </title>
<path fill="none" stroke="black" stroke-dasharray="1,5" d="M605,-187.11C605,-187.11 605,-205.99 605,-205.99"/>
<polygon fill="black" stroke="black" points="601.5,-205.99 605,-215.99 608.5,-205.99 601.5,-205.99"/>
</g>
<!-- AppRoutingModule -->
<g id="node9" class="node">
<title>AppRoutingModule</title>
<polygon fill="#8dd3c7" stroke="black" points="1200.27,-122 1197.27,-126 1176.27,-126 1173.27,-122 1071.73,-122 1071.73,-86 1200.27,-86 1200.27,-122"/>
<text text-anchor="middle" x="1136" y="-99.8" font-family="Times,serif" font-size="14.00">AppRoutingModule</text>
</g>
<!-- AppRoutingModule&#45;&gt;AppModule -->
<g id="edge8" class="edge">
<title>AppRoutingModule&#45;&gt;AppModule</title>
<path fill="none" stroke="black" d="M1136,-122.01C1136,-144.49 1136,-180 1136,-180 1136,-180 656.67,-180 656.67,-180"/>
<polygon fill="black" stroke="black" points="656.67,-176.5 646.67,-180 656.67,-183.5 656.67,-176.5"/>
</g>
<!-- ProductModule -->
<g id="node10" class="node">
<title>ProductModule</title>
<polygon fill="#8dd3c7" stroke="black" points="1053.6,-122 1050.6,-126 1029.6,-126 1026.6,-122 950.4,-122 950.4,-86 1053.6,-86 1053.6,-122"/>
<text text-anchor="middle" x="1002" y="-99.8" font-family="Times,serif" font-size="14.00">ProductModule</text>
</g>
<!-- ProductModule&#45;&gt;AppModule -->
<g id="edge9" class="edge">
<title>ProductModule&#45;&gt;AppModule</title>
<path fill="none" stroke="black" d="M1002,-122.13C1002,-142.57 1002,-173 1002,-173 1002,-173 656.74,-173 656.74,-173"/>
<polygon fill="black" stroke="black" points="656.74,-169.5 646.74,-173 656.74,-176.5 656.74,-169.5"/>
</g>
</g>
</svg>
